<?xml version="1.0" encoding="UTF-8"?>
<svg version="1.1" xmlns="http://www.w3.org/2000/svg" width="48" height="48">
<path d="M0 0 C15.84 0 31.68 0 48 0 C48 15.84 48 31.68 48 48 C32.16 48 16.32 48 0 48 C0 32.16 0 16.32 0 0 Z " fill="#0F111E" transform="translate(0,0)"/>
<path d="M0 0 C0.33 0.66 0.66 1.32 1 2 C1.66 1.67 2.32 1.34 3 1 C4.54023996 0.93049459 6.08334988 0.91547643 7.625 0.9375 C8.85089844 0.95103516 8.85089844 0.95103516 10.1015625 0.96484375 C11.04128906 0.98224609 11.04128906 0.98224609 12 1 C12.66 2.65 13.32 4.3 14 6 C14.66 6 15.32 6 16 6 C16.3258427 13.16853933 16.3258427 13.16853933 14 16 C10.375 17.25 10.375 17.25 7 18 C8.32 18.66 9.64 19.32 11 20 C11 20.99 11 21.98 11 23 C6.33367936 24.55544021 2.53441459 22.51147153 -2 21 C-2.33 21.66 -2.66 22.32 -3 23 C-4.32 23 -5.64 23 -7 23 C-6 20 -6 20 -5 19 C-5.99 18.67 -6.98 18.34 -8 18 C-11.00965455 15.07633558 -11.94770412 13.60663216 -12.3125 9.375 C-12 6 -12 6 -11 3 C-7.64723657 0.67885609 -3.97581042 0.45874736 0 0 Z " fill="#221D4B" transform="translate(22,11)"/>
<path d="M0 0 C2.375 2.1875 2.375 2.1875 4 5 C3.75 7.8125 3.75 7.8125 3 10 C0.37886292 10 -1.50935112 9.68707555 -4 9 C-3.01 8.67 -2.02 8.34 -1 8 C-1 6.68 -1 5.36 -1 4 C-4.62087545 4.56009185 -5.97832329 5.8049404 -8.3125 8.5625 C-11.06121987 11.44747107 -11.68322395 11.9480695 -15.8125 12.625 C-16.864375 12.41875 -17.91625 12.2125 -19 12 C-19.66 11.01 -20.32 10.02 -21 9 C-20.34 9 -19.68 9 -19 9 C-18.67 8.34 -18.34 7.68 -18 7 C-16.35 7.33 -14.7 7.66 -13 8 C-12.59007812 7.50628906 -12.18015625 7.01257813 -11.7578125 6.50390625 C-11.21898437 5.86324219 -10.68015625 5.22257812 -10.125 4.5625 C-9.59132813 3.92441406 -9.05765625 3.28632813 -8.5078125 2.62890625 C-5.90759885 -0.18013285 -3.73128885 -0.53304126 0 0 Z " fill="#A658EB" transform="translate(33,14)"/>
<path d="M0 0 C0 0.66 0 1.32 0 2 C1.98 2.66 3.96 3.32 6 4 C6 4.99 6 5.98 6 7 C1.33367936 8.55544021 -2.46558541 6.51147153 -7 5 C-7.33 5.66 -7.66 6.32 -8 7 C-9.32 7 -10.64 7 -12 7 C-11 4 -11 4 -10 3 C-10.99 2.34 -11.98 1.68 -13 1 C-8.62426048 0.40667939 -4.42471556 -0.13827236 0 0 Z " fill="#666670" transform="translate(27,27)"/>
<path d="M0 0 C3.375 1.0625 3.375 1.0625 4.8125 3.125 C5.0909375 4.0840625 5.0909375 4.0840625 5.375 5.0625 C3.6875 7.125 3.6875 7.125 1.375 9.0625 C-1.1875 8.75 -1.1875 8.75 -3.625 8.0625 C-4.615 8.3925 -5.605 8.7225 -6.625 9.0625 C-7.375 7.375 -7.375 7.375 -7.625 5.0625 C-5.48381964 1.04778682 -4.63575272 0.07992677 0 0 Z " fill="#4E44B8" transform="translate(18.625,13.9375)"/>
<path d="M0 0 C2.3125 0.1875 2.3125 0.1875 4 1 C3.67 2.65 3.34 4.3 3 6 C3.99 5.67 4.98 5.34 6 5 C5.67 6.32 5.34 7.64 5 9 C2.8125 9.8125 2.8125 9.8125 0 10 C-2.8125 7.5625 -2.8125 7.5625 -5 5 C-2.75 2.4375 -2.75 2.4375 0 0 Z " fill="#652EA2" transform="translate(29,17)"/>
<path d="M0 0 C0.66 0 1.32 0 2 0 C1.61502006 2.23288365 1.10506663 3.83656302 -0.125 5.75 C-3.08635171 7.72423447 -5.55033411 7.37632719 -9 7 C-9.66 6.01 -10.32 5.02 -11 4 C-10.34 4 -9.68 4 -9 4 C-8.67 3.34 -8.34 2.68 -8 2 C-6.8553125 2.3403125 -6.8553125 2.3403125 -5.6875 2.6875 C-4.800625 2.790625 -3.91375 2.89375 -3 3 C-1.2912354 1.62485459 -1.2912354 1.62485459 0 0 Z " fill="#7859F1" transform="translate(23,19)"/>
<path d="M0 0 C0.66 0 1.32 0 2 0 C2.17754126 3.90590763 2.20731737 6.68902394 0 10 C-4.02248275 12.01124138 -8.25733112 11.21604913 -12.4375 10 C-13.283125 9.67 -14.12875 9.34 -15 9 C-14.34 8.01 -13.68 7.02 -13 6 C-12.1646875 6.4640625 -12.1646875 6.4640625 -11.3125 6.9375 C-8.81411992 8.08540436 -6.73660292 8.71932278 -4 9 C-3.01 8.34 -2.02 7.68 -1 7 C-0.26393501 3.43230448 -0.26393501 3.43230448 0 0 Z " fill="#331D56" transform="translate(36,17)"/>
<path d="M0 0 C1.98 0 3.96 0 6 0 C6 0.33 6 0.66 6 1 C10.455 1.99 10.455 1.99 15 3 C14.67 3.66 14.34 4.32 14 5 C12.22925083 5.02705729 10.45838289 5.04642195 8.6875 5.0625 C7.70136719 5.07410156 6.71523438 5.08570313 5.69921875 5.09765625 C3 5 3 5 0 4 C0 2.68 0 1.36 0 0 Z " fill="#161724" transform="translate(20,8)"/>
<path d="M0 0 C2.0625 0.4375 2.0625 0.4375 4 1 C4.33 2.32 4.66 3.64 5 5 C3.35 5.33 1.7 5.66 0 6 C-0.38218767 4.34385343 -0.71395102 2.67542976 -1 1 C-0.67 0.67 -0.34 0.34 0 0 Z " fill="#27205C" transform="translate(16,17)"/>
<path d="M0 0 C2.0625 0.4375 2.0625 0.4375 4 1 C3.67 2.65 3.34 4.3 3 6 C1.35 5.67 -0.3 5.34 -2 5 C-1.125 1.125 -1.125 1.125 0 0 Z " fill="#3B1F61" transform="translate(29,17)"/>
<path d="M0 0 C2.64 0 5.28 0 8 0 C8.66 1.65 9.32 3.3 10 5 C9.01 4.34 8.02 3.68 7 3 C4.66800612 2.92094936 2.33167378 2.91201231 0 3 C0 2.01 0 1.02 0 0 Z " fill="#351F54" transform="translate(26,12)"/>
<path d="M0 0 C-0.969375 0.598125 -1.93875 1.19625 -2.9375 1.8125 C-6.23052042 3.71127509 -6.23052042 3.71127509 -7 7 C-7.66 7 -8.32 7 -9 7 C-9.33 5.68 -9.66 4.36 -10 3 C-8.68 2.67 -7.36 2.34 -6 2 C-6 1.34 -6 0.68 -6 0 C-3 -1 -3 -1 0 0 Z " fill="#1B162E" transform="translate(45,10)"/>
<path d="M0 0 C0.66 0 1.32 0 2 0 C2.625 1.8125 2.625 1.8125 3 4 C2.01 5.485 2.01 5.485 1 7 C-1.15634036 7 -2.92446352 6.5534764 -5 6 C-4.01 5.67 -3.02 5.34 -2 5 C-0.78130071 2.49552484 -0.78130071 2.49552484 0 0 Z " fill="#9A49D4" transform="translate(34,17)"/>
<path d="M0 0 C1.98 0 3.96 0 6 0 C6.66 1.32 7.32 2.64 8 4 C7.01 4.66 6.02 5.32 5 6 C4.731875 5.195625 4.46375 4.39125 4.1875 3.5625 C3.795625 2.716875 3.40375 1.87125 3 1 C2.01 0.67 1.02 0.34 0 0 Z " fill="#4E39A1" transform="translate(16,15)"/>
<path d="M0 0 C0.66 0.33 1.32 0.66 2 1 C2 1.66 2 2.32 2 3 C3.32 3 4.64 3 6 3 C6 3.66 6 4.32 6 5 C3.125 5.1875 3.125 5.1875 0 5 C-0.66 4.01 -1.32 3.02 -2 2 C-1.34 2 -0.68 2 0 2 C0 1.34 0 0.68 0 0 Z " fill="#5A51E0" transform="translate(14,21)"/>
</svg>
